<svg xmlns="http://www.w3.org/2000/svg" viewBox="0 0 1200 220" width="100%" role="img" aria-label="famesjranko — backend and infrastructure developer, Melbourne, AU. Focus: networking, infrastructure, self-hosting. Stack: Linux, Docker, Python, Kotlin.">
<title>famesjranko — backend &amp; infrastructure developer</title>
<rect width="1200" height="220" rx="16" fill="#0d1117"/><g><rect x="18" y="40" width="15" height="15" rx="3" fill="#0e4429"/><rect x="37" y="40" width="15" height="15" rx="3" fill="#006d32"/><rect x="56" y="40" width="15" height="15" rx="3" fill="#006d32"/><rect x="75" y="40" width="15" height="15" rx="3" fill="#26a641"/><rect x="94" y="40" width="15" height="15" rx="3" fill="#26a641"/><rect x="113" y="40" width="15" height="15" rx="3" fill="#26a641"/><rect x="132" y="40" width="15" height="15" rx="3" fill="#39d353"/><rect x="151" y="40" width="15" height="15" rx="3" fill="#0e4429"/><rect x="170" y="40" width="15" height="15" rx="3" fill="#0e4429"/><rect x="189" y="40" width="15" height="15" rx="3" fill="#006d32"/><rect x="208" y="40" width="15" height="15" rx="3" fill="#0e4429"/><rect x="227" y="40" width="15" height="15" rx="3" fill="#0e4429"/><rect x="246" y="40" width="15" height="15" rx="3" fill="#006d32"/><rect x="265" y="40" width="15" height="15" rx="3" fill="#006d32"/><rect x="284" y="40" width="15" height="15" rx="3" fill="#26a641"/><rect x="303" y="40" width="15" height="15" rx="3" fill="#39d353"/><rect x="322" y="40" width="15" height="15" rx="3" fill="#39d353"/><rect x="341" y="40" width="15" height="15" rx="3" fill="#39d353"/><rect x="360" y="40" width="15" height="15" rx="3" fill="#39d353"/><rect x="379" y="40" width="15" height="15" rx="3" fill="#26a641"/><rect x="398" y="40" width="15" height="15" rx="3" fill="#0e4429"/><rect x="417" y="40" width="15" height="15" rx="3" fill="#006d32"/><rect x="436" y="40" width="15" height="15" rx="3" fill="#161b22"/><rect x="455" y="40" width="15" height="15" rx="3" fill="#0e4429"/><rect x="474" y="40" width="15" height="15" rx="3" fill="#0e4429"/><rect x="493" y="40" width="15" height="15" rx="3" fill="#0e4429"/><rect x="512" y="40" width="15" height="15" rx="3" fill="#006d32"/><rect x="531" y="40" width="15" height="15" rx="3" fill="#39d353"/><rect x="550" y="40" width="15" height="15" rx="3" fill="#39d353"/><rect x="569" y="40" width="15" height="15" rx="3" fill="#39d353"/><rect x="588" y="40" width="15" height="15" rx="3" fill="#26a641"/><rect x="607" y="40" width="15" height="15" rx="3" fill="#26a641"/><rect x="626" y="40" width="15" height="15" rx="3" fill="#26a641"/><rect x="645" y="40" width="15" height="15" rx="3" fill="#006d32"/><rect x="664" y="40" width="15" height="15" rx="3" fill="#006d32"/><rect x="683" y="40" width="15" height="15" rx="3" fill="#006d32"/><rect x="702" y="40" width="15" height="15" rx="3" fill="#161b22"/><rect x="721" y="40" width="15" height="15" rx="3" fill="#006d32"/><rect x="740" y="40" width="15" height="15" rx="3" fill="#161b22"/><rect x="759" y="40" width="15" height="15" rx="3" fill="#006d32"/><rect x="778" y="40" width="15" height="15" rx="3" fill="#006d32"/><rect x="797" y="40" width="15" height="15" rx="3" fill="#0e4429"/><rect x="816" y="40" width="15" height="15" rx="3" fill="#006d32"/><rect x="835" y="40" width="15" height="15" rx="3" fill="#006d32"/><rect x="854" y="40" width="15" height="15" rx="3" fill="#26a641"/><rect x="873" y="40" width="15" height="15" rx="3" fill="#006d32"/><rect x="892" y="40" width="15" height="15" rx="3" fill="#26a641"/><rect x="911" y="40" width="15" height="15" rx="3" fill="#006d32"/><rect x="930" y="40" width="15" height="15" rx="3" fill="#006d32"/><rect x="949" y="40" width="15" height="15" rx="3" fill="#0e4429"/><rect x="968" y="40" width="15" height="15" rx="3" fill="#006d32"/><rect x="987" y="40" width="15" height="15" rx="3" fill="#0e4429"/><rect x="1006" y="40" width="15" height="15" rx="3" fill="#161b22"/><rect x="1025" y="40" width="15" height="15" rx="3" fill="#006d32"/><rect x="1044" y="40" width="15" height="15" rx="3" fill="#0e4429"/><rect x="1063" y="40" width="15" height="15" rx="3" fill="#006d32"/><rect x="1082" y="40" width="15" height="15" rx="3" fill="#006d32"/><rect x="1101" y="40" width="15" height="15" rx="3" fill="#006d32"/><rect x="1120" y="40" width="15" height="15" rx="3" fill="#006d32"/><rect x="1139" y="40" width="15" height="15" rx="3" fill="#006d32"/><rect x="1158" y="40" width="15" height="15" rx="3" fill="#26a641"/><rect x="1177" y="40" width="15" height="15" rx="3" fill="#26a641"/><rect x="1196" y="40" width="15" height="15" rx="3" fill="#26a641"/><rect x="18" y="59" width="15" height="15" rx="3" fill="#26a641"/><rect x="37" y="59" width="15" height="15" rx="3" fill="#26a641"/><rect x="56" y="59" width="15" height="15" rx="3" fill="#26a641"/><rect x="75" y="59" width="15" height="15" rx="3" fill="#39d353"/><rect x="94" y="59" width="15" height="15" rx="3" fill="#39d353"/><rect x="113" y="59" width="15" height="15" rx="3" fill="#006d32"/><rect x="132" y="59" width="15" height="15" rx="3" fill="#26a641"/><rect x="151" y="59" width="15" height="15" rx="3" fill="#0e4429"/><rect x="170" y="59" width="15" height="15" rx="3" fill="#006d32"/><rect x="189" y="59" width="15" height="15" rx="3" fill="#161b22"/><rect x="208" y="59" width="15" height="15" rx="3" fill="#0e4429"/><rect x="227" y="59" width="15" height="15" rx="3" fill="#0e4429"/><rect x="246" y="59" width="15" height="15" rx="3" fill="#006d32"/><rect x="265" y="59" width="15" height="15" rx="3" fill="#26a641"/><rect x="284" y="59" width="15" height="15" rx="3" fill="#39d353"/><rect x="303" y="59" width="15" height="15" rx="3" fill="#26a641"/><rect x="322" y="59" width="15" height="15" rx="3" fill="#26a641"/><rect x="341" y="59" width="15" height="15" rx="3" fill="#39d353"/><rect x="360" y="59" width="15" height="15" rx="3" fill="#006d32"/><rect x="379" y="59" width="15" height="15" rx="3" fill="#006d32"/><rect x="398" y="59" width="15" height="15" rx="3" fill="#161b22"/><rect x="417" y="59" width="15" height="15" rx="3" fill="#0e4429"/><rect x="436" y="59" width="15" height="15" rx="3" fill="#006d32"/><rect x="455" y="59" width="15" height="15" rx="3" fill="#0e4429"/><rect x="474" y="59" width="15" height="15" rx="3" fill="#006d32"/><rect x="493" y="59" width="15" height="15" rx="3" fill="#26a641"/><rect x="512" y="59" width="15" height="15" rx="3" fill="#26a641"/><rect x="531" y="59" width="15" height="15" rx="3" fill="#39d353"/><rect x="550" y="59" width="15" height="15" rx="3" fill="#39d353"/><rect x="569" y="59" width="15" height="15" rx="3" fill="#26a641"/><rect x="588" y="59" width="15" height="15" rx="3" fill="#006d32"/><rect x="607" y="59" width="15" height="15" rx="3" fill="#26a641"/><rect x="626" y="59" width="15" height="15" rx="3" fill="#006d32"/><rect x="645" y="59" width="15" height="15" rx="3" fill="#0e4429"/><rect x="664" y="59" width="15" height="15" rx="3" fill="#0e4429"/><rect x="683" y="59" width="15" height="15" rx="3" fill="#0e4429"/><rect x="702" y="59" width="15" height="15" rx="3" fill="#006d32"/><rect x="721" y="59" width="15" height="15" rx="3" fill="#0e4429"/><rect x="740" y="59" width="15" height="15" rx="3" fill="#0e4429"/><rect x="759" y="59" width="15" height="15" rx="3" fill="#26a641"/><rect x="778" y="59" width="15" height="15" rx="3" fill="#39d353"/><rect x="797" y="59" width="15" height="15" rx="3" fill="#26a641"/><rect x="816" y="59" width="15" height="15" rx="3" fill="#39d353"/><rect x="835" y="59" width="15" height="15" rx="3" fill="#26a641"/><rect x="854" y="59" width="15" height="15" rx="3" fill="#39d353"/><rect x="873" y="59" width="15" height="15" rx="3" fill="#26a641"/><rect x="892" y="59" width="15" height="15" rx="3" fill="#39d353"/><rect x="911" y="59" width="15" height="15" rx="3" fill="#26a641"/><rect x="930" y="59" width="15" height="15" rx="3" fill="#26a641"/><rect x="949" y="59" width="15" height="15" rx="3" fill="#26a641"/><rect x="968" y="59" width="15" height="15" rx="3" fill="#26a641"/><rect x="987" y="59" width="15" height="15" rx="3" fill="#26a641"/><rect x="1006" y="59" width="15" height="15" rx="3" fill="#26a641"/><rect x="1025" y="59" width="15" height="15" rx="3" fill="#26a641"/><rect x="1044" y="59" width="15" height="15" rx="3" fill="#0e4429"/><rect x="1063" y="59" width="15" height="15" rx="3" fill="#161b22"/><rect x="1082" y="59" width="15" height="15" rx="3" fill="#161b22"/><rect x="1101" y="59" width="15" height="15" rx="3" fill="#0e4429"/><rect x="1120" y="59" width="15" height="15" rx="3" fill="#006d32"/><rect x="1139" y="59" width="15" height="15" rx="3" fill="#0e4429"/><rect x="1158" y="59" width="15" height="15" rx="3" fill="#006d32"/><rect x="1177" y="59" width="15" height="15" rx="3" fill="#26a641"/><rect x="1196" y="59" width="15" height="15" rx="3" fill="#39d353"/><rect x="18" y="78" width="15" height="15" rx="3" fill="#006d32"/><rect x="37" y="78" width="15" height="15" rx="3" fill="#26a641"/><rect x="56" y="78" width="15" height="15" rx="3" fill="#26a641"/><rect x="75" y="78" width="15" height="15" rx="3" fill="#26a641"/><rect x="94" y="78" width="15" height="15" rx="3" fill="#26a641"/><rect x="113" y="78" width="15" height="15" rx="3" fill="#006d32"/><rect x="132" y="78" width="15" height="15" rx="3" fill="#0e4429"/><rect x="151" y="78" width="15" height="15" rx="3" fill="#006d32"/><rect x="170" y="78" width="15" height="15" rx="3" fill="#161b22"/><rect x="189" y="78" width="15" height="15" rx="3" fill="#0e4429"/><rect x="208" y="78" width="15" height="15" rx="3" fill="#006d32"/><rect x="227" y="78" width="15" height="15" rx="3" fill="#0e4429"/><rect x="246" y="78" width="15" height="15" rx="3" fill="#26a641"/><rect x="265" y="78" width="15" height="15" rx="3" fill="#39d353"/><rect x="284" y="78" width="15" height="15" rx="3" fill="#39d353"/><rect x="303" y="78" width="15" height="15" rx="3" fill="#26a641"/><rect x="322" y="78" width="15" height="15" rx="3" fill="#26a641"/><rect x="341" y="78" width="15" height="15" rx="3" fill="#26a641"/><rect x="360" y="78" width="15" height="15" rx="3" fill="#006d32"/><rect x="379" y="78" width="15" height="15" rx="3" fill="#006d32"/><rect x="398" y="78" width="15" height="15" rx="3" fill="#161b22"/><rect x="417" y="78" width="15" height="15" rx="3" fill="#0e4429"/><rect x="436" y="78" width="15" height="15" rx="3" fill="#0e4429"/><rect x="455" y="78" width="15" height="15" rx="3" fill="#006d32"/><rect x="474" y="78" width="15" height="15" rx="3" fill="#39d353"/><rect x="493" y="78" width="15" height="15" rx="3" fill="#26a641"/><rect x="512" y="78" width="15" height="15" rx="3" fill="#39d353"/><rect x="531" y="78" width="15" height="15" rx="3" fill="#26a641"/><rect x="550" y="78" width="15" height="15" rx="3" fill="#39d353"/><rect x="569" y="78" width="15" height="15" rx="3" fill="#26a641"/><rect x="588" y="78" width="15" height="15" rx="3" fill="#0e4429"/><rect x="607" y="78" width="15" height="15" rx="3" fill="#006d32"/><rect x="626" y="78" width="15" height="15" rx="3" fill="#161b22"/><rect x="645" y="78" width="15" height="15" rx="3" fill="#161b22"/><rect x="664" y="78" width="15" height="15" rx="3" fill="#006d32"/><rect x="683" y="78" width="15" height="15" rx="3" fill="#0e4429"/><rect x="702" y="78" width="15" height="15" rx="3" fill="#006d32"/><rect x="721" y="78" width="15" height="15" rx="3" fill="#006d32"/><rect x="740" y="78" width="15" height="15" rx="3" fill="#39d353"/><rect x="759" y="78" width="15" height="15" rx="3" fill="#26a641"/><rect x="778" y="78" width="15" height="15" rx="3" fill="#39d353"/><rect x="797" y="78" width="15" height="15" rx="3" fill="#39d353"/><rect x="816" y="78" width="15" height="15" rx="3" fill="#39d353"/><rect x="835" y="78" width="15" height="15" rx="3" fill="#006d32"/><rect x="854" y="78" width="15" height="15" rx="3" fill="#006d32"/><rect x="873" y="78" width="15" height="15" rx="3" fill="#006d32"/><rect x="892" y="78" width="15" height="15" rx="3" fill="#006d32"/><rect x="911" y="78" width="15" height="15" rx="3" fill="#006d32"/><rect x="930" y="78" width="15" height="15" rx="3" fill="#39d353"/><rect x="949" y="78" width="15" height="15" rx="3" fill="#39d353"/><rect x="968" y="78" width="15" height="15" rx="3" fill="#26a641"/><rect x="987" y="78" width="15" height="15" rx="3" fill="#39d353"/><rect x="1006" y="78" width="15" height="15" rx="3" fill="#39d353"/><rect x="1025" y="78" width="15" height="15" rx="3" fill="#39d353"/><rect x="1044" y="78" width="15" height="15" rx="3" fill="#006d32"/><rect x="1063" y="78" width="15" height="15" rx="3" fill="#26a641"/><rect x="1082" y="78" width="15" height="15" rx="3" fill="#0e4429"/><rect x="1101" y="78" width="15" height="15" rx="3" fill="#0e4429"/><rect x="1120" y="78" width="15" height="15" rx="3" fill="#0e4429"/><rect x="1139" y="78" width="15" height="15" rx="3" fill="#0e4429"/><rect x="1158" y="78" width="15" height="15" rx="3" fill="#0e4429"/><rect x="1177" y="78" width="15" height="15" rx="3" fill="#006d32"/><rect x="1196" y="78" width="15" height="15" rx="3" fill="#26a641"/><rect x="18" y="97" width="15" height="15" rx="3" fill="#26a641"/><rect x="37" y="97" width="15" height="15" rx="3" fill="#26a641"/><rect x="56" y="97" width="15" height="15" rx="3" fill="#26a641"/><rect x="75" y="97" width="15" height="15" rx="3" fill="#39d353"/><rect x="94" y="97" width="15" height="15" rx="3" fill="#26a641"/><rect x="113" y="97" width="15" height="15" rx="3" fill="#26a641"/><rect x="132" y="97" width="15" height="15" rx="3" fill="#0e4429"/><rect x="151" y="97" width="15" height="15" rx="3" fill="#0e4429"/><rect x="170" y="97" width="15" height="15" rx="3" fill="#161b22"/><rect x="189" y="97" width="15" height="15" rx="3" fill="#0e4429"/><rect x="208" y="97" width="15" height="15" rx="3" fill="#006d32"/><rect x="227" y="97" width="15" height="15" rx="3" fill="#26a641"/><rect x="246" y="97" width="15" height="15" rx="3" fill="#39d353"/><rect x="265" y="97" width="15" height="15" rx="3" fill="#39d353"/><rect x="284" y="97" width="15" height="15" rx="3" fill="#39d353"/><rect x="303" y="97" width="15" height="15" rx="3" fill="#26a641"/><rect x="322" y="97" width="15" height="15" rx="3" fill="#39d353"/><rect x="341" y="97" width="15" height="15" rx="3" fill="#26a641"/><rect x="360" y="97" width="15" height="15" rx="3" fill="#0e4429"/><rect x="379" y="97" width="15" height="15" rx="3" fill="#0e4429"/><rect x="398" y="97" width="15" height="15" rx="3" fill="#161b22"/><rect x="417" y="97" width="15" height="15" rx="3" fill="#161b22"/><rect x="436" y="97" width="15" height="15" rx="3" fill="#0e4429"/><rect x="455" y="97" width="15" height="15" rx="3" fill="#26a641"/><rect x="474" y="97" width="15" height="15" rx="3" fill="#006d32"/><rect x="493" y="97" width="15" height="15" rx="3" fill="#26a641"/><rect x="512" y="97" width="15" height="15" rx="3" fill="#26a641"/><rect x="531" y="97" width="15" height="15" rx="3" fill="#39d353"/><rect x="550" y="97" width="15" height="15" rx="3" fill="#26a641"/><rect x="569" y="97" width="15" height="15" rx="3" fill="#26a641"/><rect x="588" y="97" width="15" height="15" rx="3" fill="#0e4429"/><rect x="607" y="97" width="15" height="15" rx="3" fill="#0e4429"/><rect x="626" y="97" width="15" height="15" rx="3" fill="#006d32"/><rect x="645" y="97" width="15" height="15" rx="3" fill="#161b22"/><rect x="664" y="97" width="15" height="15" rx="3" fill="#006d32"/><rect x="683" y="97" width="15" height="15" rx="3" fill="#26a641"/><rect x="702" y="97" width="15" height="15" rx="3" fill="#39d353"/><rect x="721" y="97" width="15" height="15" rx="3" fill="#39d353"/><rect x="740" y="97" width="15" height="15" rx="3" fill="#39d353"/><rect x="759" y="97" width="15" height="15" rx="3" fill="#26a641"/><rect x="778" y="97" width="15" height="15" rx="3" fill="#26a641"/><rect x="797" y="97" width="15" height="15" rx="3" fill="#26a641"/><rect x="816" y="97" width="15" height="15" rx="3" fill="#0e4429"/><rect x="835" y="97" width="15" height="15" rx="3" fill="#006d32"/><rect x="854" y="97" width="15" height="15" rx="3" fill="#0e4429"/><rect x="873" y="97" width="15" height="15" rx="3" fill="#0e4429"/><rect x="892" y="97" width="15" height="15" rx="3" fill="#006d32"/><rect x="911" y="97" width="15" height="15" rx="3" fill="#0e4429"/><rect x="930" y="97" width="15" height="15" rx="3" fill="#0e4429"/><rect x="949" y="97" width="15" height="15" rx="3" fill="#0e4429"/><rect x="968" y="97" width="15" height="15" rx="3" fill="#26a641"/><rect x="987" y="97" width="15" height="15" rx="3" fill="#26a641"/><rect x="1006" y="97" width="15" height="15" rx="3" fill="#26a641"/><rect x="1025" y="97" width="15" height="15" rx="3" fill="#39d353"/><rect x="1044" y="97" width="15" height="15" rx="3" fill="#39d353"/><rect x="1063" y="97" width="15" height="15" rx="3" fill="#26a641"/><rect x="1082" y="97" width="15" height="15" rx="3" fill="#26a641"/><rect x="1101" y="97" width="15" height="15" rx="3" fill="#0e4429"/><rect x="1120" y="97" width="15" height="15" rx="3" fill="#161b22"/><rect x="1139" y="97" width="15" height="15" rx="3" fill="#0e4429"/><rect x="1158" y="97" width="15" height="15" rx="3" fill="#161b22"/><rect x="1177" y="97" width="15" height="15" rx="3" fill="#006d32"/><rect x="1196" y="97" width="15" height="15" rx="3" fill="#26a641"/><rect x="18" y="116" width="15" height="15" rx="3" fill="#006d32"/><rect x="37" y="116" width="15" height="15" rx="3" fill="#26a641"/><rect x="56" y="116" width="15" height="15" rx="3" fill="#39d353"/><rect x="75" y="116" width="15" height="15" rx="3" fill="#39d353"/><rect x="94" y="116" width="15" height="15" rx="3" fill="#006d32"/><rect x="113" y="116" width="15" height="15" rx="3" fill="#006d32"/><rect x="132" y="116" width="15" height="15" rx="3" fill="#26a641"/><rect x="151" y="116" width="15" height="15" rx="3" fill="#006d32"/><rect x="170" y="116" width="15" height="15" rx="3" fill="#161b22"/><rect x="189" y="116" width="15" height="15" rx="3" fill="#161b22"/><rect x="208" y="116" width="15" height="15" rx="3" fill="#0e4429"/><rect x="227" y="116" width="15" height="15" rx="3" fill="#26a641"/><rect x="246" y="116" width="15" height="15" rx="3" fill="#26a641"/><rect x="265" y="116" width="15" height="15" rx="3" fill="#26a641"/><rect x="284" y="116" width="15" height="15" rx="3" fill="#39d353"/><rect x="303" y="116" width="15" height="15" rx="3" fill="#39d353"/><rect x="322" y="116" width="15" height="15" rx="3" fill="#26a641"/><rect x="341" y="116" width="15" height="15" rx="3" fill="#26a641"/><rect x="360" y="116" width="15" height="15" rx="3" fill="#0e4429"/><rect x="379" y="116" width="15" height="15" rx="3" fill="#161b22"/><rect x="398" y="116" width="15" height="15" rx="3" fill="#0e4429"/><rect x="417" y="116" width="15" height="15" rx="3" fill="#0e4429"/><rect x="436" y="116" width="15" height="15" rx="3" fill="#0e4429"/><rect x="455" y="116" width="15" height="15" rx="3" fill="#006d32"/><rect x="474" y="116" width="15" height="15" rx="3" fill="#26a641"/><rect x="493" y="116" width="15" height="15" rx="3" fill="#26a641"/><rect x="512" y="116" width="15" height="15" rx="3" fill="#39d353"/><rect x="531" y="116" width="15" height="15" rx="3" fill="#39d353"/><rect x="550" y="116" width="15" height="15" rx="3" fill="#26a641"/><rect x="569" y="116" width="15" height="15" rx="3" fill="#006d32"/><rect x="588" y="116" width="15" height="15" rx="3" fill="#0e4429"/><rect x="607" y="116" width="15" height="15" rx="3" fill="#0e4429"/><rect x="626" y="116" width="15" height="15" rx="3" fill="#0e4429"/><rect x="645" y="116" width="15" height="15" rx="3" fill="#0e4429"/><rect x="664" y="116" width="15" height="15" rx="3" fill="#006d32"/><rect x="683" y="116" width="15" height="15" rx="3" fill="#39d353"/><rect x="702" y="116" width="15" height="15" rx="3" fill="#39d353"/><rect x="721" y="116" width="15" height="15" rx="3" fill="#26a641"/><rect x="740" y="116" width="15" height="15" rx="3" fill="#39d353"/><rect x="759" y="116" width="15" height="15" rx="3" fill="#39d353"/><rect x="778" y="116" width="15" height="15" rx="3" fill="#006d32"/><rect x="797" y="116" width="15" height="15" rx="3" fill="#0e4429"/><rect x="816" y="116" width="15" height="15" rx="3" fill="#0e4429"/><rect x="835" y="116" width="15" height="15" rx="3" fill="#0e4429"/><rect x="854" y="116" width="15" height="15" rx="3" fill="#0e4429"/><rect x="873" y="116" width="15" height="15" rx="3" fill="#0e4429"/><rect x="892" y="116" width="15" height="15" rx="3" fill="#0e4429"/><rect x="911" y="116" width="15" height="15" rx="3" fill="#0e4429"/><rect x="930" y="116" width="15" height="15" rx="3" fill="#0e4429"/><rect x="949" y="116" width="15" height="15" rx="3" fill="#0e4429"/><rect x="968" y="116" width="15" height="15" rx="3" fill="#006d32"/><rect x="987" y="116" width="15" height="15" rx="3" fill="#39d353"/><rect x="1006" y="116" width="15" height="15" rx="3" fill="#26a641"/><rect x="1025" y="116" width="15" height="15" rx="3" fill="#26a641"/><rect x="1044" y="116" width="15" height="15" rx="3" fill="#26a641"/><rect x="1063" y="116" width="15" height="15" rx="3" fill="#39d353"/><rect x="1082" y="116" width="15" height="15" rx="3" fill="#006d32"/><rect x="1101" y="116" width="15" height="15" rx="3" fill="#0e4429"/><rect x="1120" y="116" width="15" height="15" rx="3" fill="#006d32"/><rect x="1139" y="116" width="15" height="15" rx="3" fill="#006d32"/><rect x="1158" y="116" width="15" height="15" rx="3" fill="#161b22"/><rect x="1177" y="116" width="15" height="15" rx="3" fill="#0e4429"/><rect x="1196" y="116" width="15" height="15" rx="3" fill="#006d32"/><rect x="18" y="135" width="15" height="15" rx="3" fill="#26a641"/><rect x="37" y="135" width="15" height="15" rx="3" fill="#39d353"/><rect x="56" y="135" width="15" height="15" rx="3" fill="#39d353"/><rect x="75" y="135" width="15" height="15" rx="3" fill="#39d353"/><rect x="94" y="135" width="15" height="15" rx="3" fill="#26a641"/><rect x="113" y="135" width="15" height="15" rx="3" fill="#006d32"/><rect x="132" y="135" width="15" height="15" rx="3" fill="#0e4429"/><rect x="151" y="135" width="15" height="15" rx="3" fill="#0e4429"/><rect x="170" y="135" width="15" height="15" rx="3" fill="#161b22"/><rect x="189" y="135" width="15" height="15" rx="3" fill="#0e4429"/><rect x="208" y="135" width="15" height="15" rx="3" fill="#0e4429"/><rect x="227" y="135" width="15" height="15" rx="3" fill="#26a641"/><rect x="246" y="135" width="15" height="15" rx="3" fill="#006d32"/><rect x="265" y="135" width="15" height="15" rx="3" fill="#39d353"/><rect x="284" y="135" width="15" height="15" rx="3" fill="#39d353"/><rect x="303" y="135" width="15" height="15" rx="3" fill="#39d353"/><rect x="322" y="135" width="15" height="15" rx="3" fill="#26a641"/><rect x="341" y="135" width="15" height="15" rx="3" fill="#26a641"/><rect x="360" y="135" width="15" height="15" rx="3" fill="#006d32"/><rect x="379" y="135" width="15" height="15" rx="3" fill="#161b22"/><rect x="398" y="135" width="15" height="15" rx="3" fill="#161b22"/><rect x="417" y="135" width="15" height="15" rx="3" fill="#0e4429"/><rect x="436" y="135" width="15" height="15" rx="3" fill="#0e4429"/><rect x="455" y="135" width="15" height="15" rx="3" fill="#006d32"/><rect x="474" y="135" width="15" height="15" rx="3" fill="#006d32"/><rect x="493" y="135" width="15" height="15" rx="3" fill="#26a641"/><rect x="512" y="135" width="15" height="15" rx="3" fill="#26a641"/><rect x="531" y="135" width="15" height="15" rx="3" fill="#39d353"/><rect x="550" y="135" width="15" height="15" rx="3" fill="#26a641"/><rect x="569" y="135" width="15" height="15" rx="3" fill="#26a641"/><rect x="588" y="135" width="15" height="15" rx="3" fill="#0e4429"/><rect x="607" y="135" width="15" height="15" rx="3" fill="#0e4429"/><rect x="626" y="135" width="15" height="15" rx="3" fill="#0e4429"/><rect x="645" y="135" width="15" height="15" rx="3" fill="#006d32"/><rect x="664" y="135" width="15" height="15" rx="3" fill="#0e4429"/><rect x="683" y="135" width="15" height="15" rx="3" fill="#006d32"/><rect x="702" y="135" width="15" height="15" rx="3" fill="#006d32"/><rect x="721" y="135" width="15" height="15" rx="3" fill="#26a641"/><rect x="740" y="135" width="15" height="15" rx="3" fill="#26a641"/><rect x="759" y="135" width="15" height="15" rx="3" fill="#39d353"/><rect x="778" y="135" width="15" height="15" rx="3" fill="#39d353"/><rect x="797" y="135" width="15" height="15" rx="3" fill="#26a641"/><rect x="816" y="135" width="15" height="15" rx="3" fill="#006d32"/><rect x="835" y="135" width="15" height="15" rx="3" fill="#006d32"/><rect x="854" y="135" width="15" height="15" rx="3" fill="#161b22"/><rect x="873" y="135" width="15" height="15" rx="3" fill="#0e4429"/><rect x="892" y="135" width="15" height="15" rx="3" fill="#161b22"/><rect x="911" y="135" width="15" height="15" rx="3" fill="#0e4429"/><rect x="930" y="135" width="15" height="15" rx="3" fill="#006d32"/><rect x="949" y="135" width="15" height="15" rx="3" fill="#006d32"/><rect x="968" y="135" width="15" height="15" rx="3" fill="#006d32"/><rect x="987" y="135" width="15" height="15" rx="3" fill="#39d353"/><rect x="1006" y="135" width="15" height="15" rx="3" fill="#26a641"/><rect x="1025" y="135" width="15" height="15" rx="3" fill="#39d353"/><rect x="1044" y="135" width="15" height="15" rx="3" fill="#39d353"/><rect x="1063" y="135" width="15" height="15" rx="3" fill="#26a641"/><rect x="1082" y="135" width="15" height="15" rx="3" fill="#006d32"/><rect x="1101" y="135" width="15" height="15" rx="3" fill="#006d32"/><rect x="1120" y="135" width="15" height="15" rx="3" fill="#006d32"/><rect x="1139" y="135" width="15" height="15" rx="3" fill="#161b22"/><rect x="1158" y="135" width="15" height="15" rx="3" fill="#0e4429"/><rect x="1177" y="135" width="15" height="15" rx="3" fill="#006d32"/><rect x="1196" y="135" width="15" height="15" rx="3" fill="#26a641"/><rect x="18" y="154" width="15" height="15" rx="3" fill="#26a641"/><rect x="37" y="154" width="15" height="15" rx="3" fill="#39d353"/><rect x="56" y="154" width="15" height="15" rx="3" fill="#39d353"/><rect x="75" y="154" width="15" height="15" rx="3" fill="#39d353"/><rect x="94" y="154" width="15" height="15" rx="3" fill="#39d353"/><rect x="113" y="154" width="15" height="15" rx="3" fill="#26a641"/><rect x="132" y="154" width="15" height="15" rx="3" fill="#006d32"/><rect x="151" y="154" width="15" height="15" rx="3" fill="#006d32"/><rect x="170" y="154" width="15" height="15" rx="3" fill="#0e4429"/><rect x="189" y="154" width="15" height="15" rx="3" fill="#161b22"/><rect x="208" y="154" width="15" height="15" rx="3" fill="#006d32"/><rect x="227" y="154" width="15" height="15" rx="3" fill="#006d32"/><rect x="246" y="154" width="15" height="15" rx="3" fill="#006d32"/><rect x="265" y="154" width="15" height="15" rx="3" fill="#26a641"/><rect x="284" y="154" width="15" height="15" rx="3" fill="#39d353"/><rect x="303" y="154" width="15" height="15" rx="3" fill="#39d353"/><rect x="322" y="154" width="15" height="15" rx="3" fill="#39d353"/><rect x="341" y="154" width="15" height="15" rx="3" fill="#26a641"/><rect x="360" y="154" width="15" height="15" rx="3" fill="#0e4429"/><rect x="379" y="154" width="15" height="15" rx="3" fill="#006d32"/><rect x="398" y="154" width="15" height="15" rx="3" fill="#161b22"/><rect x="417" y="154" width="15" height="15" rx="3" fill="#006d32"/><rect x="436" y="154" width="15" height="15" rx="3" fill="#0e4429"/><rect x="455" y="154" width="15" height="15" rx="3" fill="#26a641"/><rect x="474" y="154" width="15" height="15" rx="3" fill="#006d32"/><rect x="493" y="154" width="15" height="15" rx="3" fill="#26a641"/><rect x="512" y="154" width="15" height="15" rx="3" fill="#39d353"/><rect x="531" y="154" width="15" height="15" rx="3" fill="#39d353"/><rect x="550" y="154" width="15" height="15" rx="3" fill="#39d353"/><rect x="569" y="154" width="15" height="15" rx="3" fill="#006d32"/><rect x="588" y="154" width="15" height="15" rx="3" fill="#006d32"/><rect x="607" y="154" width="15" height="15" rx="3" fill="#161b22"/><rect x="626" y="154" width="15" height="15" rx="3" fill="#161b22"/><rect x="645" y="154" width="15" height="15" rx="3" fill="#0e4429"/><rect x="664" y="154" width="15" height="15" rx="3" fill="#006d32"/><rect x="683" y="154" width="15" height="15" rx="3" fill="#006d32"/><rect x="702" y="154" width="15" height="15" rx="3" fill="#006d32"/><rect x="721" y="154" width="15" height="15" rx="3" fill="#26a641"/><rect x="740" y="154" width="15" height="15" rx="3" fill="#39d353"/><rect x="759" y="154" width="15" height="15" rx="3" fill="#39d353"/><rect x="778" y="154" width="15" height="15" rx="3" fill="#26a641"/><rect x="797" y="154" width="15" height="15" rx="3" fill="#39d353"/><rect x="816" y="154" width="15" height="15" rx="3" fill="#006d32"/><rect x="835" y="154" width="15" height="15" rx="3" fill="#006d32"/><rect x="854" y="154" width="15" height="15" rx="3" fill="#39d353"/><rect x="873" y="154" width="15" height="15" rx="3" fill="#26a641"/><rect x="892" y="154" width="15" height="15" rx="3" fill="#26a641"/><rect x="911" y="154" width="15" height="15" rx="3" fill="#26a641"/><rect x="930" y="154" width="15" height="15" rx="3" fill="#26a641"/><rect x="949" y="154" width="15" height="15" rx="3" fill="#39d353"/><rect x="968" y="154" width="15" height="15" rx="3" fill="#26a641"/><rect x="987" y="154" width="15" height="15" rx="3" fill="#39d353"/><rect x="1006" y="154" width="15" height="15" rx="3" fill="#26a641"/><rect x="1025" y="154" width="15" height="15" rx="3" fill="#26a641"/><rect x="1044" y="154" width="15" height="15" rx="3" fill="#006d32"/><rect x="1063" y="154" width="15" height="15" rx="3" fill="#26a641"/><rect x="1082" y="154" width="15" height="15" rx="3" fill="#006d32"/><rect x="1101" y="154" width="15" height="15" rx="3" fill="#0e4429"/><rect x="1120" y="154" width="15" height="15" rx="3" fill="#006d32"/><rect x="1139" y="154" width="15" height="15" rx="3" fill="#0e4429"/><rect x="1158" y="154" width="15" height="15" rx="3" fill="#0e4429"/><rect x="1177" y="154" width="15" height="15" rx="3" fill="#006d32"/><rect x="1196" y="154" width="15" height="15" rx="3" fill="#26a641"/><rect x="18" y="173" width="15" height="15" rx="3" fill="#0e4429"/><rect x="37" y="173" width="15" height="15" rx="3" fill="#26a641"/><rect x="56" y="173" width="15" height="15" rx="3" fill="#39d353"/><rect x="75" y="173" width="15" height="15" rx="3" fill="#26a641"/><rect x="94" y="173" width="15" height="15" rx="3" fill="#39d353"/><rect x="113" y="173" width="15" height="15" rx="3" fill="#39d353"/><rect x="132" y="173" width="15" height="15" rx="3" fill="#006d32"/><rect x="151" y="173" width="15" height="15" rx="3" fill="#0e4429"/><rect x="170" y="173" width="15" height="15" rx="3" fill="#006d32"/><rect x="189" y="173" width="15" height="15" rx="3" fill="#0e4429"/><rect x="208" y="173" width="15" height="15" rx="3" fill="#0e4429"/><rect x="227" y="173" width="15" height="15" rx="3" fill="#006d32"/><rect x="246" y="173" width="15" height="15" rx="3" fill="#0e4429"/><rect x="265" y="173" width="15" height="15" rx="3" fill="#006d32"/><rect x="284" y="173" width="15" height="15" rx="3" fill="#26a641"/><rect x="303" y="173" width="15" height="15" rx="3" fill="#26a641"/><rect x="322" y="173" width="15" height="15" rx="3" fill="#39d353"/><rect x="341" y="173" width="15" height="15" rx="3" fill="#39d353"/><rect x="360" y="173" width="15" height="15" rx="3" fill="#006d32"/><rect x="379" y="173" width="15" height="15" rx="3" fill="#0e4429"/><rect x="398" y="173" width="15" height="15" rx="3" fill="#0e4429"/><rect x="417" y="173" width="15" height="15" rx="3" fill="#0e4429"/><rect x="436" y="173" width="15" height="15" rx="3" fill="#0e4429"/><rect x="455" y="173" width="15" height="15" rx="3" fill="#0e4429"/><rect x="474" y="173" width="15" height="15" rx="3" fill="#0e4429"/><rect x="493" y="173" width="15" height="15" rx="3" fill="#006d32"/><rect x="512" y="173" width="15" height="15" rx="3" fill="#26a641"/><rect x="531" y="173" width="15" height="15" rx="3" fill="#39d353"/><rect x="550" y="173" width="15" height="15" rx="3" fill="#26a641"/><rect x="569" y="173" width="15" height="15" rx="3" fill="#26a641"/><rect x="588" y="173" width="15" height="15" rx="3" fill="#39d353"/><rect x="607" y="173" width="15" height="15" rx="3" fill="#006d32"/><rect x="626" y="173" width="15" height="15" rx="3" fill="#0e4429"/><rect x="645" y="173" width="15" height="15" rx="3" fill="#0e4429"/><rect x="664" y="173" width="15" height="15" rx="3" fill="#006d32"/><rect x="683" y="173" width="15" height="15" rx="3" fill="#0e4429"/><rect x="702" y="173" width="15" height="15" rx="3" fill="#006d32"/><rect x="721" y="173" width="15" height="15" rx="3" fill="#006d32"/><rect x="740" y="173" width="15" height="15" rx="3" fill="#006d32"/><rect x="759" y="173" width="15" height="15" rx="3" fill="#26a641"/><rect x="778" y="173" width="15" height="15" rx="3" fill="#39d353"/><rect x="797" y="173" width="15" height="15" rx="3" fill="#26a641"/><rect x="816" y="173" width="15" height="15" rx="3" fill="#39d353"/><rect x="835" y="173" width="15" height="15" rx="3" fill="#26a641"/><rect x="854" y="173" width="15" height="15" rx="3" fill="#39d353"/><rect x="873" y="173" width="15" height="15" rx="3" fill="#39d353"/><rect x="892" y="173" width="15" height="15" rx="3" fill="#39d353"/><rect x="911" y="173" width="15" height="15" rx="3" fill="#26a641"/><rect x="930" y="173" width="15" height="15" rx="3" fill="#39d353"/><rect x="949" y="173" width="15" height="15" rx="3" fill="#26a641"/><rect x="968" y="173" width="15" height="15" rx="3" fill="#26a641"/><rect x="987" y="173" width="15" height="15" rx="3" fill="#26a641"/><rect x="1006" y="173" width="15" height="15" rx="3" fill="#006d32"/><rect x="1025" y="173" width="15" height="15" rx="3" fill="#006d32"/><rect x="1044" y="173" width="15" height="15" rx="3" fill="#0e4429"/><rect x="1063" y="173" width="15" height="15" rx="3" fill="#161b22"/><rect x="1082" y="173" width="15" height="15" rx="3" fill="#161b22"/><rect x="1101" y="173" width="15" height="15" rx="3" fill="#0e4429"/><rect x="1120" y="173" width="15" height="15" rx="3" fill="#006d32"/><rect x="1139" y="173" width="15" height="15" rx="3" fill="#0e4429"/><rect x="1158" y="173" width="15" height="15" rx="3" fill="#006d32"/><rect x="1177" y="173" width="15" height="15" rx="3" fill="#26a641"/><rect x="1196" y="173" width="15" height="15" rx="3" fill="#26a641"/></g>
<rect width="1200" height="220" rx="16" fill="#0d1117" opacity="0.5"/>
<rect x="60" y="70" width="720" height="86" rx="12" fill="#0d1117" opacity="0.86"/>
<text x="84" y="118" font-family='"Source Code Pro",ui-monospace,"DejaVu Sans Mono",monospace' font-weight="700" font-size="40" fill="#f0f6fc">famesjranko</text>
<text x="86" y="146" font-family='"Source Code Pro",ui-monospace,"DejaVu Sans Mono",monospace' font-weight="400" font-size="15" fill="#c9d1d9">Backend &amp; infrastructure developer · Melbourne, AU</text></svg>